HIERARCHY
ROOT Hips
{
	OFFSET -178.139603 91.880257 -111.906502
	CHANNELS 6 Xposition Yposition Zposition Zrotation Yrotation Xrotation 
	JOINT LeftUpLeg
	{
		OFFSET 0.103462 1.857831 10.548496
		CHANNELS 3 Zrotation Yrotation Xrotation
		JOINT LeftLeg
		{
			OFFSET 43.500000 -0.000038 -0.000010
			CHANNELS 3 Zrotation Yrotation Xrotation
			JOINT LeftFoot
			{
				OFFSET 42.372192 0.000011 0.000010
				CHANNELS 3 Zrotation Yrotation Xrotation
				JOINT LeftToe
				{
					OFFSET 17.299999 0.000001 -0.000001
					CHANNELS 3 Zrotation Yrotation Xrotation
					End Site
					{
						OFFSET 0.000000 0.000000 0.000000
					}
				}
			}
		}
	}
	JOINT RightUpLeg
	{
		OFFSET 0.103456 1.857825 -10.548502
		CHANNELS 3 Zrotation Yrotation Xrotation
		JOINT RightLeg
		{
			OFFSET 43.500038 -0.000023 0.000011
			CHANNELS 3 Zrotation Yrotation Xrotation
			JOINT RightFoot
			{
				OFFSET 42.372261 -0.000008 0.000011
				CHANNELS 3 Zrotation Yrotation Xrotation
				JOINT RightToe
				{
					OFFSET 17.299994 -0.000004 0.000002
					CHANNELS 3 Zrotation Yrotation Xrotation
					End Site
					{
						OFFSET 0.000000 0.000000 0.000000
					}
				}
			}
		}
	}
	JOINT Spine
	{
		OFFSET 6.901965 -2.603729 -0.000002
		CHANNELS 3 Zrotation Yrotation Xrotation
		JOINT Spine1
		{
			OFFSET 12.588101 -0.000004 0.000003
			CHANNELS 3 Zrotation Yrotation Xrotation
			JOINT Spine2
			{
				OFFSET 12.343205 0.000006 0.000001
				CHANNELS 3 Zrotation Yrotation Xrotation
				JOINT Neck
				{
					OFFSET 25.832897 -0.000008 -0.000001
					CHANNELS 3 Zrotation Yrotation Xrotation
					JOINT Head
					{
						OFFSET 11.766601 0.000009 -0.000008
						CHANNELS 3 Zrotation Yrotation Xrotation
						End Site
						{
							OFFSET 0.000000 0.000000 0.000000
						}
					}
				}
				JOINT LeftShoulder
				{
					OFFSET 19.745893 -1.480370 6.000097
					CHANNELS 3 Zrotation Yrotation Xrotation
					JOINT LeftArm
					{
						OFFSET 11.284136 -0.000006 -0.000021
						CHANNELS 3 Zrotation Yrotation Xrotation
						JOINT LeftForeArm
						{
							OFFSET 33.000042 0.000005 0.000030
							CHANNELS 3 Zrotation Yrotation Xrotation
							JOINT LeftHand
							{
								OFFSET 25.200008 0.000013 0.000010
								CHANNELS 3 Zrotation Yrotation Xrotation
								End Site
								{
									OFFSET 0.000000 0.000000 0.000000
								}
							}
						}
					}
				}
				JOINT RightShoulder
				{
					OFFSET 19.746088 -1.480379 -6.000076
					CHANNELS 3 Zrotation Yrotation Xrotation
					JOINT RightArm
					{
						OFFSET 11.284133 -0.000016 -0.000013
						CHANNELS 3 Zrotation Yrotation Xrotation
						JOINT RightForeArm
						{
							OFFSET 33.000095 0.000019 0.000001
							CHANNELS 3 Zrotation Yrotation Xrotation
							JOINT RightHand
							{
								OFFSET 25.199785 0.000138 0.000422
								CHANNELS 3 Zrotation Yrotation Xrotation
								End Site
								{
									OFFSET 0.000000 0.000000 0.000000
								}
							}
						}
					}
				}
			}
		}
	}
}
MOTION
Frames: 8
Frame Time: 0.033333
175.583298 98.855911 -457.265900 90.877709 -1.096991 4.348571 174.597722 -2.986893 173.775681 -23.391552 -2.802838 -4.385944 60.231320 -0.749260 -9.414004 21.454555 0.003090 0.000001 167.924435 6.194504 -178.477392 -26.463728 3.116528 2.931191 65.641342 -1.272810 2.540767 21.454562 -0.003108 -0.000017 6.486114 0.533228 0.643977 2.965458 1.050037 1.301205 2.647388 1.058012 1.294842 -7.832003 -12.848931 -8.064414 -9.344471 13.669069 -15.196681 -158.540206 -72.239844 -23.487438 8.956761 60.176651 29.726568 -55.246777 -15.653820 1.970716 13.164009 1.729377 38.823734 -158.724116 73.234333 23.240105 7.343821 -50.653123 -7.271586 -47.209800 20.309564 -2.044189 8.347707 6.736849 0.077262 
176.100204 100.218002 -456.692108 89.750544 -0.974513 -0.909302 175.099426 -1.943405 172.729446 -24.971846 -1.936527 -4.203780 62.548577 -0.652252 -9.289735 21.454545 0.003094 0.000001 167.942986 5.728806 -176.133394 -29.799583 1.246843 5.120116 68.300703 -3.000643 2.162869 21.454553 -0.003109 -0.000018 6.700355 0.556905 0.554786 3.393417 1.097497 1.125467 3.075331 1.104410 1.118822 -10.178382 -9.487207 -6.441545 -7.545478 11.310510 -12.023237 -161.822112 -74.299781 -20.089767 6.265086 58.441796 40.135978 -39.948134 -13.755212 1.375078 12.585286 5.030601 29.750528 -161.542088 73.722104 20.342595 1.388596 -48.623287 -4.528663 -53.137427 19.968871 -2.219161 7.818366 6.370569 0.256870 
176.524994 100.434402 -456.239502 88.211162 -1.229418 -5.879211 175.304824 -1.359802 174.417555 -27.944548 -1.793599 -1.136903 64.669058 -1.929761 -7.191241 21.454555 0.003092 0.000000 168.354423 5.195405 -178.085093 -33.888025 1.074968 5.158192 68.581123 -2.790639 2.837157 21.454558 -0.003104 -0.000017 7.056448 0.582915 0.390826 4.104282 1.151701 0.801894 3.786158 1.156659 0.794926 -11.614944 -5.206917 -4.979881 -7.309884 8.339740 -8.657858 -167.332900 -74.869699 -14.441212 7.487609 56.680103 52.433388 -32.480015 -11.847574 1.075869 12.130470 9.829584 29.756901 -163.837319 74.193326 17.984892 -5.593291 -46.027812 -2.993849 -58.861956 19.290823 -2.381346 6.058203 8.063380 -1.731999 
176.879196 99.535400 -455.869202 87.021377 -1.906477 -10.918274 174.987206 -1.391007 177.896443 -31.240951 -2.703048 2.006820 65.721911 -3.315940 -4.998133 21.454550 0.003091 -0.000001 168.615541 4.629594 178.286133 -37.985445 1.628078 2.386568 68.444253 -0.765347 2.887764 21.454557 -0.003110 -0.000018 7.350753 0.659034 0.248988 4.691950 1.307461 0.524301 4.373767 1.310742 0.516397 -12.072121 -1.308667 -3.345048 -7.665749 5.259354 -5.140292 -169.460695 -74.422943 -12.262388 12.121122 55.807495 61.489686 -31.142944 -12.137367 1.067496 14.388989 15.508373 42.275920 -166.131702 74.126513 15.633905 -12.932914 -42.485208 -0.608553 -64.302857 17.829309 -2.491785 3.787097 9.075540 -6.575520 
177.182693 97.503403 -455.592590 85.857500 -2.576819 -15.958312 174.830371 -1.384903 -178.992853 -34.411405 -3.436909 3.925536 66.457297 -4.395155 -4.274700 21.454553 0.003091 -0.000000 169.283452 4.275498 174.242060 -41.104437 2.114239 -1.181412 68.362120 1.674120 2.447288 21.454563 -0.003109 -0.000018 7.600451 0.720627 0.227666 5.191504 1.430327 0.487248 4.873322 1.433378 0.478603 -10.299357 0.218707 -1.485040 -9.618249 4.094069 -2.630166 -168.279182 -73.263662 -13.474476 17.090006 55.250339 65.883349 -31.094108 -12.337501 1.079495 17.908531 17.781986 51.511774 -168.063990 74.282037 13.653015 -19.216747 -39.361830 2.726196 -70.067359 15.796930 -2.585465 2.282832 8.073345 -12.222486 
177.522293 94.558006 -455.357208 84.997306 -3.211816 -20.790409 174.280418 -1.140792 -175.843739 -37.527928 -3.514727 3.316277 66.912638 -4.041350 -4.586912 21.454560 0.003092 0.000002 170.102214 3.987108 170.523281 -43.180620 2.178947 -4.209414 69.294223 3.815991 2.318591 21.454555 -0.003108 -0.000017 7.753944 0.729887 0.329026 5.499831 1.443340 0.692215 5.181647 1.447636 0.683488 -7.325507 0.941830 0.350730 -12.098551 3.810409 -0.629923 -165.158632 -73.174747 -16.678287 22.068888 55.935138 67.332654 -30.814477 -12.228760 1.066931 19.999030 17.413962 56.986867 -169.756798 74.080122 11.918100 -24.633999 -36.439134 6.224430 -75.119534 13.744649 -2.655450 0.434228 5.776937 -17.581197 
178.059601 90.693413 -455.208008 84.008711 -3.174736 -25.098510 173.045274 0.072690 -173.432805 -42.336159 -2.601387 4.244695 69.604354 -3.368918 -1.103406 21.454550 0.003088 0.000001 171.084504 4.454898 167.887566 -44.298903 2.249752 -5.392488 70.009856 3.709962 -0.376276 21.454563 -0.003107 -0.000017 7.966550 0.543925 0.444678 5.924764 1.064422 0.916519 5.606661 1.070071 0.910076 -4.774447 0.891021 1.931122 -15.042940 3.699560 0.879749 -162.632323 -72.912017 -19.274304 25.056959 55.836445 67.581361 -30.849349 -12.291056 1.071657 18.414619 15.192738 55.106103 -170.889899 74.214377 10.756994 -29.495076 -34.611751 11.658493 -80.532302 11.162775 -2.709006 -0.543572 2.116334 -22.307659 
178.805603 86.598488 -455.118713 83.386446 -4.142145 -28.324275 171.750270 -0.033399 -170.669161 -49.545892 -4.511091 3.958128 81.662240 -1.842114 3.327711 21.454551 0.003091 0.000002 171.325392 4.772993 170.288501 -47.199865 1.457481 -6.596140 84.708744 4.062292 -2.411993 21.454560 -0.003106 -0.000017 8.289896 0.570861 0.606199 6.573255 1.106437 1.243789 6.255173 1.114059 1.237084 -3.416144 0.404147 3.129452 -17.531769 3.568662 1.964378 -162.257332 -72.464735 -19.664448 25.768958 54.948103 65.755952 -32.371408 -12.301980 1.103129 15.846522 12.455308 50.614021 -171.739123 74.137469 9.886409 -33.326501 -32.677988 18.106936 -85.993318 7.915723 -2.722183 -0.435380 -1.399166 -26.131945 
